Coordinates
version=1
nRows=5
nColumns=40
inDegrees=yes

Units are S.I. units (second, meters, Newtons, ...)
If the header above contains a line with 'inDegrees', this indicates whether rotational values are in degrees (yes) or radians (no).

endheader
time	pelvis_tilt	pelvis_list	pelvis_rotation	pelvis_tx	pelvis_ty	pelvis_tz	hip_flexion_r	hip_adduction_r	hip_rotation_r	knee_angle_r	knee_angle_r_beta	ankle_angle_r	subtalar_angle_r	mtp_angle_r	hip_flexion_l	hip_adduction_l	hip_rotation_l	knee_angle_l	knee_angle_l_beta	ankle_angle_l	subtalar_angle_l	mtp_angle_l	lumbar_extension	lumbar_bending	lumbar_rotation	arm_flex_r	arm_add_r	arm_rot_r	elbow_flex_r	pro_sup_r	wrist_flex_r	wrist_dev_r	arm_flex_l	arm_add_l	arm_rot_l	elbow_flex_l	pro_sup_l	wrist_flex_l	wrist_dev_l
     11.67500000	    -13.86852751	     -3.81348663	     -0.00655112	     -0.36843212	      1.14294716	      0.04953817	     59.85398411	     -2.98685108	     -5.52340185	     52.51032947	      0.91647814	    -18.34060733	    -10.41971513	      0.00000000	     78.08590990	     -9.21943146	     12.47838629	    109.77530991	      1.91594060	      6.19598002	     -1.82143707	      0.00000000	    -42.47904688	      1.82441713	      7.44589276	     89.87430253	    -14.25589558	     39.08150241	     18.11221211	     87.50902256	      0.00000000	      0.00000000	     89.08628062	     -1.89146751	     36.95254470	     16.42217621	     87.16477888	      0.00000000	      0.00000000
     11.68333333	    -13.71192895	     -3.50464792	     -0.06437446	     -0.36800427	      1.14347005	      0.04944549	     58.25231740	     -3.02040232	     -5.35807643	     50.98060215	      0.88977936	    -19.28342861	    -10.25381041	      0.00000000	     79.26099715	     -9.08195998	     12.34064030	    110.98873056	      1.93711878	      7.20914614	     -2.03929853	      0.00000000	    -42.63921332	      1.45498202	      7.25020946	     89.87429467	    -14.20185510	     39.12936451	     17.91296366	     87.54284672	      0.00000000	      0.00000000	     89.10474092	     -1.90279651	     37.05910390	     16.43561428	     87.20659785	      0.00000000	      0.00000000
     11.69166667	    -13.66780712	     -3.21842068	      0.04954729	     -0.36790603	      1.14392405	      0.04927207	     56.85830447	     -3.06416685	     -5.00790419	     49.65439481	      0.86663268	    -19.83240301	    -10.32014603	      0.00000000	     80.59694587	     -8.81257194	     12.21591987	    112.03520149	      1.95538314	      7.73009405	     -2.08015719	      0.00000000	    -42.70829942	      1.20309253	      6.98148784	     89.87306497	    -14.23446926	     39.14761680	     17.83429493	     87.49812470	      0.00000000	      0.00000000	     89.13795109	     -1.86994697	     37.11533550	     16.52367296	     87.17704857	      0.00000000	      0.00000000
     11.70000000	    -13.30053915	     -3.51274889	     -0.13372131	     -0.36724556	      1.14481814	      0.04982452	     55.08027288	     -2.48222477	     -5.11738799	     48.33827218	      0.84366200	    -20.91883887	    -11.05591656	      0.00000000	     81.63526580	     -9.07289154	     12.72920460	    113.02385087	      1.97263833	      8.57745105	     -1.66597012	      0.00000000	    -43.10976113	      1.21797905	      7.34942726	     89.87351713	    -14.30443098	     39.21332213	     17.77227052	     87.50974703	      0.00000000	      0.00000000	     89.16003982	     -1.81212177	     37.20853025	     16.56430459	     87.25404881	      0.00000000	      0.00000000
     11.70833333	    -13.21093072	     -3.20448563	     -0.21028171	     -0.36691524	      1.14526513	      0.04966769	     53.83878929	     -2.52590564	     -4.78038711	     47.44285678	      0.82803406	    -21.32204352	    -10.96489241	      0.00000000	     82.80919075	     -8.94273302	     12.48383246	    113.75563137	      1.98541031	      9.04523948	     -1.75010334	      0.00000000	    -43.21117459	      0.85796908	      7.17651086	     89.87151290	    -14.29657280	     39.27227183	     17.65832405	     87.53119844	      0.00000000	      0.00000000	     89.16396301	     -1.80192868	     37.22164619	     16.60395251	     87.26894431	      0.00000000	      0.00000000
